# xmcd
#
# Track frame offsets:
#	150
#	12408
#	24796
#	39309
#	52026
#	75405
#	95908
#	112242
#	128302
#	139549
#	150692
#	161252
#	174951
#	192033
#	207339
#	219807
#	233312
#	244577
#	257726
#
# Disc length: 3602 seconds
#
# Revision: 3
# Processed by: cddbd v1.5.2PL0 Copyright (c) Steve Scherf et al.
# Submitted via: audiograbber 1.83.01
#
DISCID=e10e1013
DTITLE=Various Christmas - Rhythm and Blues Christmas
DYEAR=1996
DGENRE=Christmas
TTITLE0=Johnny Adams - The Little Boy That Santa Forgot
TTITLE1=Johnny Adams - This Christmas 
TTITLE2=Johnny Adams - Lonesome Christmas 
TTITLE3=Johnny Adams - Bells Of Saint Mary's
TTITLE4=Johnny Adams - Please Come Home For Christmas
TTITLE5=Johnny Adams - O Little Town Of Bethlehem
TTITLE6=Johnny Adams - The Lord's Prayer
TTITLE7=Johnny Adams - Silver Bells
TTITLE8=Brook Benton - You're All I Want For Christmas
TTITLE9=Brook Benton - This Time Of Year
TTITLE10=Drifters - Little Saint Nick
TTITLE11=Drifters - I Saw Mommy Kissing Santa Claus
TTITLE12=Drifters - Santa Claus Got The Blues
TTITLE13=Charles Brown - Merry Christmas, Baby
TTITLE14=Jerry Butler - Silent Night
TTITLE15=Jerry Butler - O Holy Night
TTITLE16=Charles Brown - Let's Make Everyday Christmas
TTITLE17=Patti Labelle - O Come All Ye Faithful
TTITLE18=Patti Labelle - Jingle Bells
EXTD=more info
EXTT0=
EXTT1=
EXTT2=
EXTT3=
EXTT4=
EXTT5=
EXTT6=
EXTT7=
EXTT8=
EXTT9=
EXTT10=
EXTT11=
EXTT12=
EXTT13=
EXTT14=
EXTT15=
EXTT16=
EXTT17=
EXTT18=
PLAYORDER=
